<mxfile host="app.diagrams.net" modified="2024-02-29T21:30:56.967Z" agent="Mozilla/5.0 (Windows NT 10.0; Win64; x64) AppleWebKit/537.36 (KHTML, like Gecko) Chrome/122.0.0.0 Safari/537.36" version="23.1.7" etag="sOSsAGhPc40CISJtHND8" type="device">
  <diagram id="ZeHDCeE4_y-EtrTfS3ZG" name="Page-1">
    <mxGraphModel dx="1114" dy="558" grid="1" gridSize="10" guides="1" tooltips="1" connect="1" arrows="1" fold="1" page="1" pageScale="1" pageWidth="850" pageHeight="1100" math="0" shadow="0">
      <root>
        <mxCell id="0" />
        <mxCell id="1" parent="0" />
        <mxCell id="chG4_EFRko5PFYaDqYr2-13" value="" style="edgeStyle=orthogonalEdgeStyle;rounded=0;orthogonalLoop=1;jettySize=auto;html=1;sketch=1;curveFitting=1;jiggle=2;" edge="1" parent="1" target="chG4_EFRko5PFYaDqYr2-4">
          <mxGeometry relative="1" as="geometry">
            <mxPoint x="105" y="160" as="sourcePoint" />
          </mxGeometry>
        </mxCell>
        <mxCell id="chG4_EFRko5PFYaDqYr2-1" value="User" style="shape=umlActor;verticalLabelPosition=bottom;verticalAlign=top;html=1;outlineConnect=0;sketch=1;curveFitting=1;jiggle=2;" vertex="1" parent="1">
          <mxGeometry x="90" y="70" width="30" height="60" as="geometry" />
        </mxCell>
        <mxCell id="chG4_EFRko5PFYaDqYr2-3" value="" style="whiteSpace=wrap;html=1;direction=south;fillColor=#e1d5e7;strokeColor=#9673a6;sketch=1;curveFitting=1;jiggle=2;" vertex="1" parent="1">
          <mxGeometry x="150" y="30" width="340" height="400" as="geometry" />
        </mxCell>
        <mxCell id="chG4_EFRko5PFYaDqYr2-4" value="Administrator" style="shape=umlActor;verticalLabelPosition=bottom;verticalAlign=top;html=1;outlineConnect=0;sketch=1;curveFitting=1;jiggle=2;" vertex="1" parent="1">
          <mxGeometry x="90" y="320" width="30" height="60" as="geometry" />
        </mxCell>
        <mxCell id="chG4_EFRko5PFYaDqYr2-5" value="Create Account" style="ellipse;whiteSpace=wrap;html=1;sketch=1;curveFitting=1;jiggle=2;" vertex="1" parent="1">
          <mxGeometry x="268" y="40" width="105" height="40" as="geometry" />
        </mxCell>
        <mxCell id="chG4_EFRko5PFYaDqYr2-6" value="Writing Wizard Text Editor" style="text;html=1;align=center;verticalAlign=middle;whiteSpace=wrap;rounded=0;sketch=1;curveFitting=1;jiggle=2;" vertex="1" parent="1">
          <mxGeometry x="150" y="31" width="90" height="30" as="geometry" />
        </mxCell>
        <mxCell id="chG4_EFRko5PFYaDqYr2-7" value="Login" style="ellipse;whiteSpace=wrap;html=1;sketch=1;curveFitting=1;jiggle=2;" vertex="1" parent="1">
          <mxGeometry x="267.5" y="90" width="105" height="40" as="geometry" />
        </mxCell>
        <mxCell id="chG4_EFRko5PFYaDqYr2-10" value="" style="endArrow=none;html=1;rounded=0;entryX=0;entryY=0.5;entryDx=0;entryDy=0;sketch=1;curveFitting=1;jiggle=2;" edge="1" parent="1" target="chG4_EFRko5PFYaDqYr2-5">
          <mxGeometry width="50" height="50" relative="1" as="geometry">
            <mxPoint x="132.5" y="90" as="sourcePoint" />
            <mxPoint x="192.5" y="60" as="targetPoint" />
          </mxGeometry>
        </mxCell>
        <mxCell id="chG4_EFRko5PFYaDqYr2-11" value="" style="endArrow=none;html=1;rounded=0;entryX=0;entryY=0.5;entryDx=0;entryDy=0;sketch=1;curveFitting=1;jiggle=2;" edge="1" parent="1" target="chG4_EFRko5PFYaDqYr2-7">
          <mxGeometry width="50" height="50" relative="1" as="geometry">
            <mxPoint x="130" y="110" as="sourcePoint" />
            <mxPoint x="202.5" y="70" as="targetPoint" />
          </mxGeometry>
        </mxCell>
        <mxCell id="chG4_EFRko5PFYaDqYr2-14" value="Create Document" style="ellipse;whiteSpace=wrap;html=1;sketch=1;curveFitting=1;jiggle=2;" vertex="1" parent="1">
          <mxGeometry x="268" y="140" width="105" height="40" as="geometry" />
        </mxCell>
        <mxCell id="chG4_EFRko5PFYaDqYr2-15" value="" style="endArrow=none;html=1;rounded=0;entryX=0;entryY=0.5;entryDx=0;entryDy=0;sketch=1;curveFitting=1;jiggle=2;" edge="1" parent="1" target="chG4_EFRko5PFYaDqYr2-14">
          <mxGeometry width="50" height="50" relative="1" as="geometry">
            <mxPoint x="130" y="130" as="sourcePoint" />
            <mxPoint x="192.5" y="140" as="targetPoint" />
          </mxGeometry>
        </mxCell>
        <mxCell id="chG4_EFRko5PFYaDqYr2-16" value="Edit Document" style="ellipse;whiteSpace=wrap;html=1;sketch=1;curveFitting=1;jiggle=2;" vertex="1" parent="1">
          <mxGeometry x="373" y="100" width="105" height="40" as="geometry" />
        </mxCell>
        <mxCell id="chG4_EFRko5PFYaDqYr2-18" value="" style="endArrow=none;html=1;rounded=0;entryX=0;entryY=0.5;entryDx=0;entryDy=0;exitX=0.762;exitY=0.075;exitDx=0;exitDy=0;exitPerimeter=0;sketch=1;curveFitting=1;jiggle=2;" edge="1" parent="1" source="chG4_EFRko5PFYaDqYr2-14" target="chG4_EFRko5PFYaDqYr2-16">
          <mxGeometry width="50" height="50" relative="1" as="geometry">
            <mxPoint x="297.5" y="159.5" as="sourcePoint" />
            <mxPoint x="360.5" y="159.5" as="targetPoint" />
          </mxGeometry>
        </mxCell>
        <mxCell id="chG4_EFRko5PFYaDqYr2-21" value="Open Document" style="ellipse;whiteSpace=wrap;html=1;sketch=1;curveFitting=1;jiggle=2;" vertex="1" parent="1">
          <mxGeometry x="268" y="190" width="105" height="40" as="geometry" />
        </mxCell>
        <mxCell id="chG4_EFRko5PFYaDqYr2-22" value="" style="endArrow=none;html=1;rounded=0;entryX=0;entryY=0.5;entryDx=0;entryDy=0;sketch=1;curveFitting=1;jiggle=2;" edge="1" parent="1" target="chG4_EFRko5PFYaDqYr2-21">
          <mxGeometry width="50" height="50" relative="1" as="geometry">
            <mxPoint x="129.5" y="150" as="sourcePoint" />
            <mxPoint x="192.5" y="180" as="targetPoint" />
          </mxGeometry>
        </mxCell>
        <mxCell id="chG4_EFRko5PFYaDqYr2-24" value="" style="endArrow=none;html=1;rounded=0;exitX=1;exitY=0.5;exitDx=0;exitDy=0;entryX=0;entryY=1;entryDx=0;entryDy=0;sketch=1;curveFitting=1;jiggle=2;" edge="1" parent="1" source="chG4_EFRko5PFYaDqYr2-21" target="chG4_EFRko5PFYaDqYr2-16">
          <mxGeometry width="50" height="50" relative="1" as="geometry">
            <mxPoint x="307.5" y="169.5" as="sourcePoint" />
            <mxPoint x="340" y="130" as="targetPoint" />
          </mxGeometry>
        </mxCell>
        <mxCell id="chG4_EFRko5PFYaDqYr2-27" value="Save Document" style="ellipse;whiteSpace=wrap;html=1;sketch=1;curveFitting=1;jiggle=2;" vertex="1" parent="1">
          <mxGeometry x="268" y="240" width="105" height="40" as="geometry" />
        </mxCell>
        <mxCell id="chG4_EFRko5PFYaDqYr2-29" value="" style="endArrow=none;html=1;rounded=0;entryX=0;entryY=0.5;entryDx=0;entryDy=0;sketch=1;curveFitting=1;jiggle=2;" edge="1" parent="1" target="chG4_EFRko5PFYaDqYr2-27">
          <mxGeometry width="50" height="50" relative="1" as="geometry">
            <mxPoint x="120" y="160" as="sourcePoint" />
            <mxPoint x="183.5" y="220" as="targetPoint" />
          </mxGeometry>
        </mxCell>
        <mxCell id="chG4_EFRko5PFYaDqYr2-32" value="" style="endArrow=classic;html=1;rounded=0;entryX=0.924;entryY=0.3;entryDx=0;entryDy=0;entryPerimeter=0;exitX=0.5;exitY=1;exitDx=0;exitDy=0;sketch=1;curveFitting=1;jiggle=2;" edge="1" parent="1" source="chG4_EFRko5PFYaDqYr2-16" target="chG4_EFRko5PFYaDqYr2-27">
          <mxGeometry width="50" height="50" relative="1" as="geometry">
            <mxPoint x="370" y="140" as="sourcePoint" />
            <mxPoint x="297.5" y="260" as="targetPoint" />
          </mxGeometry>
        </mxCell>
        <mxCell id="chG4_EFRko5PFYaDqYr2-34" value="Give Permissions" style="ellipse;whiteSpace=wrap;html=1;sketch=1;curveFitting=1;jiggle=2;" vertex="1" parent="1">
          <mxGeometry x="370" y="360" width="105" height="40" as="geometry" />
        </mxCell>
        <mxCell id="chG4_EFRko5PFYaDqYr2-35" value="" style="endArrow=none;html=1;rounded=0;entryX=0;entryY=0.5;entryDx=0;entryDy=0;sketch=1;curveFitting=1;jiggle=2;" edge="1" parent="1" target="chG4_EFRko5PFYaDqYr2-34">
          <mxGeometry width="50" height="50" relative="1" as="geometry">
            <mxPoint x="130" y="350" as="sourcePoint" />
            <mxPoint x="180" y="300" as="targetPoint" />
          </mxGeometry>
        </mxCell>
        <mxCell id="chG4_EFRko5PFYaDqYr2-37" value="Share Document" style="ellipse;whiteSpace=wrap;html=1;sketch=1;curveFitting=1;jiggle=2;" vertex="1" parent="1">
          <mxGeometry x="192.5" y="310" width="105" height="40" as="geometry" />
        </mxCell>
        <mxCell id="chG4_EFRko5PFYaDqYr2-38" value="" style="endArrow=none;html=1;rounded=0;entryX=0;entryY=0.5;entryDx=0;entryDy=0;sketch=1;curveFitting=1;jiggle=2;" edge="1" parent="1" target="chG4_EFRko5PFYaDqYr2-37">
          <mxGeometry width="50" height="50" relative="1" as="geometry">
            <mxPoint x="130" y="340" as="sourcePoint" />
            <mxPoint x="203" y="350" as="targetPoint" />
          </mxGeometry>
        </mxCell>
        <mxCell id="chG4_EFRko5PFYaDqYr2-40" value="" style="endArrow=none;html=1;rounded=0;entryX=0;entryY=0.5;entryDx=0;entryDy=0;exitX=0.733;exitY=0.975;exitDx=0;exitDy=0;exitPerimeter=0;sketch=1;curveFitting=1;jiggle=2;" edge="1" parent="1" source="chG4_EFRko5PFYaDqYr2-16">
          <mxGeometry width="50" height="50" relative="1" as="geometry">
            <mxPoint x="373" y="330" as="sourcePoint" />
            <mxPoint x="436" y="360" as="targetPoint" />
          </mxGeometry>
        </mxCell>
        <mxCell id="chG4_EFRko5PFYaDqYr2-41" value="" style="endArrow=none;html=1;rounded=0;entryX=0;entryY=0.5;entryDx=0;entryDy=0;exitX=1;exitY=0.5;exitDx=0;exitDy=0;sketch=1;curveFitting=1;jiggle=2;" edge="1" parent="1" source="chG4_EFRko5PFYaDqYr2-21">
          <mxGeometry width="50" height="50" relative="1" as="geometry">
            <mxPoint x="362" y="330" as="sourcePoint" />
            <mxPoint x="425" y="360" as="targetPoint" />
          </mxGeometry>
        </mxCell>
        <mxCell id="chG4_EFRko5PFYaDqYr2-42" value="" style="endArrow=none;html=1;rounded=0;entryX=0;entryY=0.5;entryDx=0;entryDy=0;exitX=1;exitY=1;exitDx=0;exitDy=0;sketch=1;curveFitting=1;jiggle=2;" edge="1" parent="1" source="chG4_EFRko5PFYaDqYr2-27">
          <mxGeometry width="50" height="50" relative="1" as="geometry">
            <mxPoint x="350" y="330" as="sourcePoint" />
            <mxPoint x="413" y="360" as="targetPoint" />
          </mxGeometry>
        </mxCell>
      </root>
    </mxGraphModel>
  </diagram>
</mxfile>
